<svg width="879" height="290" viewBox="0 0 879 290" fill="none" xmlns="http://www.w3.org/2000/svg">
<path d="M877.81 4.72433C878.762 3.72461 878.724 2.14217 877.724 1.18984C876.725 0.237519 875.142 0.275943 874.19 1.27567L877.81 4.72433ZM534.5 177.5L534.611 175.002L534.5 177.5ZM243.5 124L243.329 126.494L243.5 124ZM89.4998 154.5L88.2322 152.345L89.4998 154.5ZM17.2322 289.268C18.2085 290.244 19.7915 290.244 20.7678 289.268L36.6777 273.358C37.654 272.382 37.654 270.799 36.6777 269.822C35.7014 268.846 34.1185 268.846 33.1421 269.822L19 283.964L4.85788 269.822C3.88157 268.846 2.29865 268.846 1.32234 269.822C0.346031 270.799 0.34603 272.382 1.32234 273.358L17.2322 289.268ZM874.19 1.27567C772.411 108.12 666.279 180.836 534.611 175.002L534.389 179.998C668.274 185.929 775.735 111.88 877.81 4.72433L874.19 1.27567ZM534.611 175.002C455.851 171.513 407.048 159.807 366.058 148.158C325.06 136.506 291.498 124.778 243.671 121.506L243.329 126.494C290.502 129.722 323.44 141.244 364.692 152.967C405.952 164.693 455.148 176.487 534.389 179.998L534.611 175.002ZM243.671 121.506C175.195 116.821 131.249 127.041 88.2322 152.345L90.7673 156.655C132.751 131.959 175.65 121.863 243.329 126.494L243.671 121.506ZM88.2322 152.345C53.6541 172.685 36.7726 199.672 27.6208 221.535L32.233 223.465C41.0812 202.328 57.3454 176.315 90.7673 156.655L88.2322 152.345ZM27.6208 221.535C18.4339 243.481 16.5 265.866 16.5 287.5L21.5 287.5C21.5 266.134 23.42 244.519 32.233 223.465L27.6208 221.535Z" fill="#828282"/>
</svg>
